#!OML:ASF E:\motion texture\Top Level 1\Subject 1\Session 1\male.ASF
:FULLY-SPECIFIED
:DEGREES
206
root 37.2082 17.6392 6.34099 137.196 -85.8042 -126.834
lowerback 0.843233 0.14057 4.08901
upperback 3.18123 -0.168957 5.52711
thorax 2.82328 -0.143797 3.41179
lowerneck -4.54313 -12.2351 -11.9274
upperneck 26.2961 -21.1515 13.9006
head 12.2341 -9.83972 4.18169
rclavicle -1.23246e-014 -6.99722e-014
rhumerus -20.4121 -6.46765 -74.8238
rradius 26.4567
rwrist 23.18
rhand -20.6826 -24.5983
rfingers 7.12502
rthumb 5.68077 -54.5021
lclavicle -1.23246e-014 -6.99722e-014
lhumerus -27.721 12.3419 85.5564
lradius 25.4595
lwrist -37.3269
lhand -14.8781 16.9523
lfingers 7.12502
lthumb 11.2823 46.6289
rfemur -17.9345 -2.51312 19.8683
rtibia 54.149
rfoot 0.240129 -9.68706
rtoes -3.73415
lfemur -24.7794 -1.95223 -16.9213
ltibia 19.5484
lfoot -3.70636 1.96322
ltoes 3.65948
207
root 37.0898 17.6467 6.36544 137.735 -86.0089 -127.538
lowerback 0.880497 0.0653135 3.97674
upperback 3.23644 -0.27066 5.53885
thorax 2.86282 -0.197743 3.4859
lowerneck -4.51042 -12.2396 -11.9732
upperneck 26.5513 -21.2301 13.8672
head 12.3448 -9.88102 4.16601
rclavicle 2.38542e-015 4.77083e-015
rhumerus -20.276 -6.48189 -74.7736
rradius 26.6698
rwrist 23.7547
rhand -21.3046 -24.6994
rfingers 7.12502
rthumb 5.0802 -54.6185
lclavicle 2.38542e-015 4.77083e-015
lhumerus -27.0974 11.2828 86.1932
lradius 25.6923
lwrist -37.5204
lhand -15.2865 16.9798
lfingers 7.12502
lthumb 10.8885 46.6775
rfemur -18.8095 -2.63171 19.513
rtibia 55.0791
rfoot 0.352321 -10.0544
rtoes -3.22734
lfemur -24.1216 -1.99558 -17.3508
ltibia 19.4764
lfoot -3.97648 1.81866
ltoes 3.93213
208
root 36.9723 17.6538 6.38964 138.198 -86.2167 -128.168
lowerback 0.9176 -0.0154591 3.87283
upperback 3.29094 -0.380055 5.55246
thorax 2.90247 -0.255533 3.55722
lowerneck -4.48028 -12.2387 -12.0147
upperneck 26.798 -21.298 13.831
head 12.4506 -9.91747 4.15039
rclavicle 4.77083e-015 -2.38542e-014
rhumerus -20.1337 -6.48122 -74.7305
rradius 26.9194
rwrist 24.3061
rhand -21.949 -24.8001
rfingers 7.12502
rthumb 4.45797 -54.7331
lclavicle 4.77083e-015 -2.38542e-014
lhumerus -26.4529 10.1926 86.8477
lradius 25.927
lwrist -37.7263
lhand -15.7165 17.0163
lfingers 7.12502
lthumb 10.4737 46.7354
rfemur -19.6813 -2.74684 19.1655
rtibia 55.915
rfoot 0.401712 -10.4265
rtoes -2.71683
lfemur -23.4613 -2.04142 -17.7739
ltibia 19.3969
lfoot -4.26245 1.68583
ltoes 4.15662
209
root 36.8557 17.6605 6.41351 138.596 -86.4261 -128.731
lowerback 0.965659 -0.102455 3.77183
upperback 3.33687 -0.496693 5.57153
thorax 2.92782 -0.3172 3.63251
lowerneck -4.44442 -12.2301 -12.0577
upperneck 27.0385 -21.3524 13.791
head 12.5507 -9.94913 4.13644
rclavicle -4.37326e-015 1.74931e-014
rhumerus -19.9939 -6.45897 -74.6898
rradius 27.204
rwrist 24.8322
rhand -22.6096 -24.9109
rfingers 7.12502
rthumb 3.82012 -54.8564
lclavicle -4.37326e-015 1.74931e-014
lhumerus -25.8018 9.08049 87.5199
lradius 26.1647
lwrist -37.9433
lhand -16.1687 17.0683
lfingers 7.12502
lthumb 10.0374 46.8089
rfemur -20.5471 -2.85686 18.8259
rtibia 56.6507
rfoot 0.392225 -10.8033
rtoes -2.20517
lfemur -22.7994 -2.08857 -18.1889
ltibia 19.3096
lfoot -4.56391 1.56261
ltoes 4.33108
210
root 36.7401 17.6667 6.43711 138.915 -86.64 -129.215
lowerback 1.01663 -0.193781 3.67857
upperback 3.38259 -0.619129 5.59033
thorax 2.95201 -0.381683 3.70319
lowerneck -4.41839 -12.219 -12.0893
upperneck 27.2719 -21.3995 13.7456
head 12.6469 -9.97655 4.11932
rclavicle 8.74653e-015 7.63333e-014
rhumerus -19.8435 -6.43051 -74.6576
rradius 27.5232
rwrist 25.3283
rhand -23.2869 -25.0167
rfingers 7.12502
rthumb 3.16604 -54.9729
lclavicle 8.74653e-015 7.63333e-014
lhumerus -25.127 7.93222 88.2087
lradius 26.405
lwrist -38.1592
lhand -16.6417 17.1317
lfingers 7.12502
lthumb 9.58108 46.8939
rfemur -21.4036 -2.96483 18.4913
rtibia 57.2799
rfoot 0.326777 -11.1787
rtoes -1.71412
lfemur -22.1375 -2.13797 -18.5982
ltibia 19.215
lfoot -4.86727 1.44735
ltoes 4.47674
211
root 36.6254 17.6724 6.4604 139.123 -86.8592 -129.584
lowerback 1.0682 -0.291827 3.59114
upperback 3.42734 -0.750711 5.61024
thorax 2.9757 -0.450727 3.77173
lowerneck -4.39358 -12.2022 -12.1136
upperneck 27.4951 -21.435 13.6966
head 12.7362 -9.9987 4.10183
rclavicle 2.38542e-015 -3.02153e-014
rhumerus -19.6834 -6.38845 -74.6347
rradius 27.8775
rwrist 25.7882
rhand -23.9809 -25.122
rfingers 7.12502
rthumb 2.49578 -55.0871
lclavicle 2.38542e-015 -3.02153e-014
lhumerus -24.4327 6.7568 88.9115
lradius 26.6487
lwrist -38.3677
lhand -17.1309 17.2222
lfingers 7.12502
lthumb 9.109 47.0055
rfemur -22.2477 -3.07237 18.1611
rtibia 57.7972
rfoot 0.209426 -11.5546
rtoes -1.22544
lfemur -21.4791 -2.18914 -19.0016
ltibia 19.1162
lfoot -5.1741 1.33349
ltoes 4.59971
212
root 36.5117 17.6775 6.48343 139.239 -87.0813 -129.858
lowerback 1.12501 -0.397443 3.50682
upperback 3.46582 -0.891865 5.63357
thorax 2.99088 -0.524669 3.84209
lowerneck -4.36477 -12.1769 -12.1355
upperneck 27.7116 -21.455 13.6428
head 12.8187 -10.0148 4.08532
rclavicle 4.77083e-015 -4.6118e-014
rhumerus -19.5186 -6.32495 -74.6192
rradius 28.2659
rwrist 26.2026
rhand -24.6787 -25.2315
rfingers 7.12502
rthumb 1.8219 -55.2035
lclavicle 4.77083e-015 -4.6118e-014
lhumerus -23.7296 5.56472 89.6268
lradius 26.8964
lwrist -38.5648
lhand -17.6387 17.3277
lfingers 7.12502
lthumb 8.61902 47.1318
rfemur -23.0788 -3.1763 17.8355
rtibia 58.1993
rfoot 0.0424763 -11.9291
rtoes -0.742597
lfemur -20.8262 -2.23939 -19.3982
ltibia 19.0147
lfoot -5.48869 1.22025
ltoes 4.69345
